<svg xmlns="http://www.w3.org/2000/svg" viewBox="0 0 64 64" role="img" aria-label="PaperBane green candlestick mark">
  <defs><linearGradient id="g" x1="0" y1="0" x2="1" y2="1"><stop stop-color="#7DFF48"/><stop offset="1" stop-color="#32E6CF"/></linearGradient></defs>
  <path fill="#090B0A" d="M7 8 33 2l24 9 5 25-13 24-28-2L3 40z"/>
  <path fill="#181b19" stroke="#985CFF" stroke-width="2" d="m10 14 20-7 21 7 7 20-12 20-25-1L7 38z"/>
  <path fill="#c5c8c4" opacity=".2" d="m14 17 9-3-2 7 8 3-8 5 4 6-10 1 3 8-8-5z"/>
  <path stroke="url(#g)" stroke-width="4" stroke-linecap="square" d="M37 11v9m0 27v8"/>
  <path fill="url(#g)" stroke="#7DFF48" stroke-width="2" d="M29 19h16v29H29z"/>
  <path fill="#090B0A" d="M33 24h8v19h-8z" opacity=".22"/>
</svg>
